<mxfile host="Electron" agent="Mozilla/5.0 (X11; Linux x86_64) AppleWebKit/537.36 (KHTML, like Gecko) draw.io/24.7.17 Chrome/128.0.6613.36 Electron/32.0.1 Safari/537.36" version="24.7.17">
  <diagram id="C5RBs43oDa-KdzZeNtuy" name="Page-1">
    <mxGraphModel dx="1539" dy="906" grid="1" gridSize="10" guides="1" tooltips="1" connect="1" arrows="1" fold="1" page="1" pageScale="1" pageWidth="1169" pageHeight="827" math="0" shadow="0">
      <root>
        <mxCell id="WIyWlLk6GJQsqaUBKTNV-0" />
        <mxCell id="WIyWlLk6GJQsqaUBKTNV-1" parent="WIyWlLk6GJQsqaUBKTNV-0" />
        <mxCell id="zkfFHV4jXpPFQw0GAbJ--0" value="SOLICITANTE" style="swimlane;fontStyle=2;align=center;verticalAlign=top;childLayout=stackLayout;horizontal=1;startSize=26;horizontalStack=0;resizeParent=1;resizeLast=0;collapsible=1;marginBottom=0;rounded=0;shadow=0;strokeWidth=1;" parent="WIyWlLk6GJQsqaUBKTNV-1" vertex="1">
          <mxGeometry x="38" y="224" width="130" height="140" as="geometry">
            <mxRectangle x="230" y="140" width="160" height="26" as="alternateBounds" />
          </mxGeometry>
        </mxCell>
        <mxCell id="zkfFHV4jXpPFQw0GAbJ--1" value="ID_solicitante" style="text;align=left;verticalAlign=top;spacingLeft=4;spacingRight=4;overflow=hidden;rotatable=0;points=[[0,0.5],[1,0.5]];portConstraint=eastwest;" parent="zkfFHV4jXpPFQw0GAbJ--0" vertex="1">
          <mxGeometry y="26" width="130" height="26" as="geometry" />
        </mxCell>
        <mxCell id="zkfFHV4jXpPFQw0GAbJ--4" value="" style="line;html=1;strokeWidth=1;align=left;verticalAlign=middle;spacingTop=-1;spacingLeft=3;spacingRight=3;rotatable=0;labelPosition=right;points=[];portConstraint=eastwest;" parent="zkfFHV4jXpPFQw0GAbJ--0" vertex="1">
          <mxGeometry y="52" width="130" height="88" as="geometry" />
        </mxCell>
        <mxCell id="zkfFHV4jXpPFQw0GAbJ--6" value="Ciudadano (Persona)" style="swimlane;fontStyle=0;align=center;verticalAlign=top;childLayout=stackLayout;horizontal=1;startSize=26;horizontalStack=0;resizeParent=1;resizeLast=0;collapsible=1;marginBottom=0;rounded=0;shadow=0;strokeWidth=1;" parent="WIyWlLk6GJQsqaUBKTNV-1" vertex="1">
          <mxGeometry x="38" y="463" width="160" height="110" as="geometry">
            <mxRectangle x="130" y="380" width="160" height="26" as="alternateBounds" />
          </mxGeometry>
        </mxCell>
        <mxCell id="zkfFHV4jXpPFQw0GAbJ--7" value="DNI/CIF" style="text;align=left;verticalAlign=top;spacingLeft=4;spacingRight=4;overflow=hidden;rotatable=0;points=[[0,0.5],[1,0.5]];portConstraint=eastwest;" parent="zkfFHV4jXpPFQw0GAbJ--6" vertex="1">
          <mxGeometry y="26" width="160" height="26" as="geometry" />
        </mxCell>
        <mxCell id="zkfFHV4jXpPFQw0GAbJ--9" value="" style="line;html=1;strokeWidth=1;align=left;verticalAlign=middle;spacingTop=-1;spacingLeft=3;spacingRight=3;rotatable=0;labelPosition=right;points=[];portConstraint=eastwest;" parent="zkfFHV4jXpPFQw0GAbJ--6" vertex="1">
          <mxGeometry y="52" width="160" height="48" as="geometry" />
        </mxCell>
        <mxCell id="zkfFHV4jXpPFQw0GAbJ--12" value="" style="endArrow=block;endSize=10;endFill=0;shadow=0;strokeWidth=1;rounded=0;curved=0;edgeStyle=elbowEdgeStyle;elbow=vertical;" parent="WIyWlLk6GJQsqaUBKTNV-1" source="zkfFHV4jXpPFQw0GAbJ--6" target="zkfFHV4jXpPFQw0GAbJ--0" edge="1">
          <mxGeometry width="160" relative="1" as="geometry">
            <mxPoint x="198" y="307" as="sourcePoint" />
            <mxPoint x="198" y="307" as="targetPoint" />
          </mxGeometry>
        </mxCell>
        <mxCell id="zkfFHV4jXpPFQw0GAbJ--13" value="Representante" style="swimlane;fontStyle=0;align=center;verticalAlign=top;childLayout=stackLayout;horizontal=1;startSize=26;horizontalStack=0;resizeParent=1;resizeLast=0;collapsible=1;marginBottom=0;rounded=0;shadow=0;strokeWidth=1;" parent="WIyWlLk6GJQsqaUBKTNV-1" vertex="1">
          <mxGeometry x="338" y="463" width="100" height="110" as="geometry">
            <mxRectangle x="340" y="380" width="170" height="26" as="alternateBounds" />
          </mxGeometry>
        </mxCell>
        <mxCell id="zkfFHV4jXpPFQw0GAbJ--14" value="NIF / NRP" style="text;align=left;verticalAlign=top;spacingLeft=4;spacingRight=4;overflow=hidden;rotatable=0;points=[[0,0.5],[1,0.5]];portConstraint=eastwest;" parent="zkfFHV4jXpPFQw0GAbJ--13" vertex="1">
          <mxGeometry y="26" width="100" height="26" as="geometry" />
        </mxCell>
        <mxCell id="zkfFHV4jXpPFQw0GAbJ--15" value="" style="line;html=1;strokeWidth=1;align=left;verticalAlign=middle;spacingTop=-1;spacingLeft=3;spacingRight=3;rotatable=0;labelPosition=right;points=[];portConstraint=eastwest;" parent="zkfFHV4jXpPFQw0GAbJ--13" vertex="1">
          <mxGeometry y="52" width="100" height="48" as="geometry" />
        </mxCell>
        <mxCell id="zkfFHV4jXpPFQw0GAbJ--16" value="" style="endArrow=block;endSize=10;endFill=0;shadow=0;strokeWidth=1;rounded=0;curved=0;edgeStyle=elbowEdgeStyle;elbow=vertical;" parent="WIyWlLk6GJQsqaUBKTNV-1" source="zkfFHV4jXpPFQw0GAbJ--13" target="zkfFHV4jXpPFQw0GAbJ--0" edge="1">
          <mxGeometry width="160" relative="1" as="geometry">
            <mxPoint x="208" y="477" as="sourcePoint" />
            <mxPoint x="308" y="375" as="targetPoint" />
          </mxGeometry>
        </mxCell>
        <mxCell id="sgVoKOyP_XRpZsMZcaKQ-14" value="Persona Física" style="swimlane;fontStyle=0;align=center;verticalAlign=top;childLayout=stackLayout;horizontal=1;startSize=26;horizontalStack=0;resizeParent=1;resizeLast=0;collapsible=1;marginBottom=0;rounded=0;shadow=0;strokeWidth=1;" parent="WIyWlLk6GJQsqaUBKTNV-1" vertex="1">
          <mxGeometry x="48" y="644" width="90" height="110" as="geometry">
            <mxRectangle x="130" y="380" width="160" height="26" as="alternateBounds" />
          </mxGeometry>
        </mxCell>
        <mxCell id="sgVoKOyP_XRpZsMZcaKQ-15" value="DNI" style="text;align=left;verticalAlign=top;spacingLeft=4;spacingRight=4;overflow=hidden;rotatable=0;points=[[0,0.5],[1,0.5]];portConstraint=eastwest;" parent="sgVoKOyP_XRpZsMZcaKQ-14" vertex="1">
          <mxGeometry y="26" width="90" height="54" as="geometry" />
        </mxCell>
        <mxCell id="sgVoKOyP_XRpZsMZcaKQ-16" value="" style="line;html=1;strokeWidth=1;align=left;verticalAlign=middle;spacingTop=-1;spacingLeft=3;spacingRight=3;rotatable=0;labelPosition=right;points=[];portConstraint=eastwest;" parent="sgVoKOyP_XRpZsMZcaKQ-14" vertex="1">
          <mxGeometry y="80" width="90" height="8" as="geometry" />
        </mxCell>
        <mxCell id="sgVoKOyP_XRpZsMZcaKQ-17" value="Persona Jurídica" style="swimlane;fontStyle=0;align=center;verticalAlign=top;childLayout=stackLayout;horizontal=1;startSize=26;horizontalStack=0;resizeParent=1;resizeLast=0;collapsible=1;marginBottom=0;rounded=0;shadow=0;strokeWidth=1;" parent="WIyWlLk6GJQsqaUBKTNV-1" vertex="1">
          <mxGeometry x="148" y="644" width="100" height="110" as="geometry">
            <mxRectangle x="130" y="380" width="160" height="26" as="alternateBounds" />
          </mxGeometry>
        </mxCell>
        <mxCell id="sgVoKOyP_XRpZsMZcaKQ-18" value="CIF" style="text;align=left;verticalAlign=top;spacingLeft=4;spacingRight=4;overflow=hidden;rotatable=0;points=[[0,0.5],[1,0.5]];portConstraint=eastwest;" parent="sgVoKOyP_XRpZsMZcaKQ-17" vertex="1">
          <mxGeometry y="26" width="100" height="26" as="geometry" />
        </mxCell>
        <mxCell id="sgVoKOyP_XRpZsMZcaKQ-19" value="" style="line;html=1;strokeWidth=1;align=left;verticalAlign=middle;spacingTop=-1;spacingLeft=3;spacingRight=3;rotatable=0;labelPosition=right;points=[];portConstraint=eastwest;" parent="sgVoKOyP_XRpZsMZcaKQ-17" vertex="1">
          <mxGeometry y="52" width="100" height="58" as="geometry" />
        </mxCell>
        <mxCell id="sgVoKOyP_XRpZsMZcaKQ-23" value="" style="endArrow=block;endSize=10;endFill=0;shadow=0;strokeWidth=1;rounded=0;curved=0;edgeStyle=elbowEdgeStyle;elbow=vertical;" parent="WIyWlLk6GJQsqaUBKTNV-1" edge="1">
          <mxGeometry width="160" relative="1" as="geometry">
            <mxPoint x="98" y="644" as="sourcePoint" />
            <mxPoint x="148" y="574" as="targetPoint" />
          </mxGeometry>
        </mxCell>
        <mxCell id="sgVoKOyP_XRpZsMZcaKQ-26" value="" style="endArrow=block;endSize=10;endFill=0;shadow=0;strokeWidth=1;rounded=0;curved=0;edgeStyle=elbowEdgeStyle;elbow=vertical;exitX=0.5;exitY=0;exitDx=0;exitDy=0;" parent="WIyWlLk6GJQsqaUBKTNV-1" edge="1" source="sgVoKOyP_XRpZsMZcaKQ-17">
          <mxGeometry width="160" relative="1" as="geometry">
            <mxPoint x="278" y="644" as="sourcePoint" />
            <mxPoint x="148" y="574" as="targetPoint" />
          </mxGeometry>
        </mxCell>
        <mxCell id="rktfoVMr56i7lYZDGzMG-18" value="" style="group" vertex="1" connectable="0" parent="WIyWlLk6GJQsqaUBKTNV-1">
          <mxGeometry x="362" y="654" width="70" height="110" as="geometry" />
        </mxCell>
        <mxCell id="rktfoVMr56i7lYZDGzMG-20" value="" style="group" vertex="1" connectable="0" parent="rktfoVMr56i7lYZDGzMG-18">
          <mxGeometry width="70" height="110" as="geometry" />
        </mxCell>
        <mxCell id="rktfoVMr56i7lYZDGzMG-0" value="Público" style="swimlane;fontStyle=0;align=center;verticalAlign=top;childLayout=stackLayout;horizontal=1;startSize=30;horizontalStack=0;resizeParent=1;resizeLast=0;collapsible=1;marginBottom=0;rounded=0;shadow=0;strokeWidth=1;" vertex="1" parent="rktfoVMr56i7lYZDGzMG-20">
          <mxGeometry width="70" height="110" as="geometry">
            <mxRectangle x="130" y="380" width="160" height="26" as="alternateBounds" />
          </mxGeometry>
        </mxCell>
        <mxCell id="rktfoVMr56i7lYZDGzMG-2" value="" style="line;html=1;strokeWidth=1;align=left;verticalAlign=middle;spacingTop=-1;spacingLeft=3;spacingRight=3;rotatable=0;labelPosition=right;points=[];portConstraint=eastwest;" vertex="1" parent="rktfoVMr56i7lYZDGzMG-20">
          <mxGeometry y="70" width="70" height="20" as="geometry" />
        </mxCell>
        <mxCell id="rktfoVMr56i7lYZDGzMG-21" value="" style="group" vertex="1" connectable="0" parent="WIyWlLk6GJQsqaUBKTNV-1">
          <mxGeometry x="288" y="654" width="70" height="110" as="geometry" />
        </mxCell>
        <mxCell id="rktfoVMr56i7lYZDGzMG-22" value="Notarial" style="swimlane;fontStyle=0;align=center;verticalAlign=top;childLayout=stackLayout;horizontal=1;startSize=30;horizontalStack=0;resizeParent=1;resizeLast=0;collapsible=1;marginBottom=0;rounded=0;shadow=0;strokeWidth=1;" vertex="1" parent="rktfoVMr56i7lYZDGzMG-21">
          <mxGeometry width="70" height="110" as="geometry">
            <mxRectangle x="130" y="380" width="160" height="26" as="alternateBounds" />
          </mxGeometry>
        </mxCell>
        <mxCell id="rktfoVMr56i7lYZDGzMG-23" value="" style="line;html=1;strokeWidth=1;align=left;verticalAlign=middle;spacingTop=-1;spacingLeft=3;spacingRight=3;rotatable=0;labelPosition=right;points=[];portConstraint=eastwest;" vertex="1" parent="rktfoVMr56i7lYZDGzMG-21">
          <mxGeometry y="70" width="70" height="20" as="geometry" />
        </mxCell>
        <mxCell id="rktfoVMr56i7lYZDGzMG-24" value="" style="group" vertex="1" connectable="0" parent="WIyWlLk6GJQsqaUBKTNV-1">
          <mxGeometry x="436" y="654" width="70" height="110" as="geometry" />
        </mxCell>
        <mxCell id="rktfoVMr56i7lYZDGzMG-25" value="Privado" style="swimlane;fontStyle=0;align=center;verticalAlign=top;childLayout=stackLayout;horizontal=1;startSize=30;horizontalStack=0;resizeParent=1;resizeLast=0;collapsible=1;marginBottom=0;rounded=0;shadow=0;strokeWidth=1;" vertex="1" parent="rktfoVMr56i7lYZDGzMG-24">
          <mxGeometry width="70" height="110" as="geometry">
            <mxRectangle x="130" y="380" width="160" height="26" as="alternateBounds" />
          </mxGeometry>
        </mxCell>
        <mxCell id="rktfoVMr56i7lYZDGzMG-26" value="" style="line;html=1;strokeWidth=1;align=left;verticalAlign=middle;spacingTop=-1;spacingLeft=3;spacingRight=3;rotatable=0;labelPosition=right;points=[];portConstraint=eastwest;" vertex="1" parent="rktfoVMr56i7lYZDGzMG-24">
          <mxGeometry y="70" width="70" height="20" as="geometry" />
        </mxCell>
        <mxCell id="rktfoVMr56i7lYZDGzMG-27" value="" style="group" vertex="1" connectable="0" parent="WIyWlLk6GJQsqaUBKTNV-1">
          <mxGeometry x="510" y="654" width="70" height="110" as="geometry" />
        </mxCell>
        <mxCell id="rktfoVMr56i7lYZDGzMG-28" value="Profesional" style="swimlane;fontStyle=0;align=center;verticalAlign=top;childLayout=stackLayout;horizontal=1;startSize=30;horizontalStack=0;resizeParent=1;resizeLast=0;collapsible=1;marginBottom=0;rounded=0;shadow=0;strokeWidth=1;" vertex="1" parent="rktfoVMr56i7lYZDGzMG-27">
          <mxGeometry width="70" height="110" as="geometry">
            <mxRectangle x="130" y="380" width="160" height="26" as="alternateBounds" />
          </mxGeometry>
        </mxCell>
        <mxCell id="rktfoVMr56i7lYZDGzMG-29" value="" style="line;html=1;strokeWidth=1;align=left;verticalAlign=middle;spacingTop=-1;spacingLeft=3;spacingRight=3;rotatable=0;labelPosition=right;points=[];portConstraint=eastwest;" vertex="1" parent="rktfoVMr56i7lYZDGzMG-27">
          <mxGeometry y="70" width="70" height="20" as="geometry" />
        </mxCell>
        <mxCell id="rktfoVMr56i7lYZDGzMG-34" style="edgeStyle=orthogonalEdgeStyle;rounded=0;orthogonalLoop=1;jettySize=auto;html=1;endArrow=block;endFill=0;" edge="1" parent="WIyWlLk6GJQsqaUBKTNV-1">
          <mxGeometry relative="1" as="geometry">
            <mxPoint x="321" y="654" as="sourcePoint" />
            <mxPoint x="386" y="574" as="targetPoint" />
            <Array as="points">
              <mxPoint x="320.99" y="653.99" />
              <mxPoint x="320.99" y="623.99" />
              <mxPoint x="385.99" y="623.99" />
            </Array>
          </mxGeometry>
        </mxCell>
        <mxCell id="rktfoVMr56i7lYZDGzMG-35" style="edgeStyle=orthogonalEdgeStyle;rounded=0;orthogonalLoop=1;jettySize=auto;html=1;endArrow=block;endFill=0;" edge="1" parent="WIyWlLk6GJQsqaUBKTNV-1">
          <mxGeometry relative="1" as="geometry">
            <mxPoint x="386" y="654" as="sourcePoint" />
            <mxPoint x="386" y="574" as="targetPoint" />
            <Array as="points">
              <mxPoint x="386" y="574" />
            </Array>
          </mxGeometry>
        </mxCell>
        <mxCell id="rktfoVMr56i7lYZDGzMG-36" style="edgeStyle=orthogonalEdgeStyle;rounded=0;orthogonalLoop=1;jettySize=auto;html=1;endArrow=block;endFill=0;" edge="1" parent="WIyWlLk6GJQsqaUBKTNV-1">
          <mxGeometry relative="1" as="geometry">
            <mxPoint x="468" y="654" as="sourcePoint" />
            <mxPoint x="386" y="574" as="targetPoint" />
            <Array as="points">
              <mxPoint x="467.99" y="653.99" />
              <mxPoint x="467.99" y="623.99" />
              <mxPoint x="532.99" y="623.99" />
            </Array>
          </mxGeometry>
        </mxCell>
        <mxCell id="rktfoVMr56i7lYZDGzMG-37" style="edgeStyle=orthogonalEdgeStyle;rounded=0;orthogonalLoop=1;jettySize=auto;html=1;endArrow=block;endFill=0;" edge="1" parent="WIyWlLk6GJQsqaUBKTNV-1">
          <mxGeometry relative="1" as="geometry">
            <mxPoint x="543" y="654" as="sourcePoint" />
            <mxPoint x="386" y="574" as="targetPoint" />
            <Array as="points">
              <mxPoint x="542.99" y="653.99" />
              <mxPoint x="542.99" y="623.99" />
              <mxPoint x="607.99" y="623.99" />
            </Array>
          </mxGeometry>
        </mxCell>
        <mxCell id="rktfoVMr56i7lYZDGzMG-39" value="SOLICITUD" style="swimlane;fontStyle=2;align=center;verticalAlign=top;childLayout=stackLayout;horizontal=1;startSize=26;horizontalStack=0;resizeParent=1;resizeLast=0;collapsible=1;marginBottom=0;rounded=0;shadow=0;strokeWidth=1;" vertex="1" parent="WIyWlLk6GJQsqaUBKTNV-1">
          <mxGeometry x="232" y="224" width="96" height="140" as="geometry">
            <mxRectangle x="230" y="140" width="160" height="26" as="alternateBounds" />
          </mxGeometry>
        </mxCell>
        <mxCell id="rktfoVMr56i7lYZDGzMG-40" value="ID_solicitud" style="text;align=left;verticalAlign=top;spacingLeft=4;spacingRight=4;overflow=hidden;rotatable=0;points=[[0,0.5],[1,0.5]];portConstraint=eastwest;" vertex="1" parent="rktfoVMr56i7lYZDGzMG-39">
          <mxGeometry y="26" width="96" height="26" as="geometry" />
        </mxCell>
        <mxCell id="rktfoVMr56i7lYZDGzMG-41" value="" style="line;html=1;strokeWidth=1;align=left;verticalAlign=middle;spacingTop=-1;spacingLeft=3;spacingRight=3;rotatable=0;labelPosition=right;points=[];portConstraint=eastwest;" vertex="1" parent="rktfoVMr56i7lYZDGzMG-39">
          <mxGeometry y="52" width="96" height="88" as="geometry" />
        </mxCell>
        <mxCell id="rktfoVMr56i7lYZDGzMG-42" value="" style="group" vertex="1" connectable="0" parent="WIyWlLk6GJQsqaUBKTNV-1">
          <mxGeometry x="197.99999999999994" y="518" width="140.96000000000004" height="0.5099999999999909" as="geometry" />
        </mxCell>
        <mxCell id="sgVoKOyP_XRpZsMZcaKQ-2" value="" style="endArrow=none;html=1;rounded=0;exitX=0.994;exitY=1.115;exitDx=0;exitDy=0;exitPerimeter=0;entryX=0;entryY=0.5;entryDx=0;entryDy=0;" parent="rktfoVMr56i7lYZDGzMG-42" edge="1">
          <mxGeometry width="50" height="50" relative="1" as="geometry">
            <mxPoint y="0.5" as="sourcePoint" />
            <mxPoint x="140.96000000000004" y="0.5099999999999909" as="targetPoint" />
          </mxGeometry>
        </mxCell>
        <mxCell id="sgVoKOyP_XRpZsMZcaKQ-3" value="es representado por" style="edgeLabel;html=1;align=center;verticalAlign=middle;resizable=0;points=[];" parent="sgVoKOyP_XRpZsMZcaKQ-2" vertex="1" connectable="0">
          <mxGeometry x="0.2196" y="3" relative="1" as="geometry">
            <mxPoint x="-15" y="-12" as="offset" />
          </mxGeometry>
        </mxCell>
        <mxCell id="sgVoKOyP_XRpZsMZcaKQ-10" value="0..n" style="edgeLabel;resizable=0;html=1;align=left;verticalAlign=top;" parent="rktfoVMr56i7lYZDGzMG-42" connectable="0" vertex="1">
          <mxGeometry x="110.00000000000006" as="geometry" />
        </mxCell>
        <mxCell id="sgVoKOyP_XRpZsMZcaKQ-11" value="1..n" style="edgeLabel;resizable=0;html=1;align=left;verticalAlign=top;" parent="rktfoVMr56i7lYZDGzMG-42" connectable="0" vertex="1">
          <mxGeometry x="10.000000000000057" as="geometry" />
        </mxCell>
        <mxCell id="rktfoVMr56i7lYZDGzMG-48" value="EXPEDIENTE" style="swimlane;fontStyle=2;align=center;verticalAlign=top;childLayout=stackLayout;horizontal=1;startSize=26;horizontalStack=0;resizeParent=1;resizeLast=0;collapsible=1;marginBottom=0;rounded=0;shadow=0;strokeWidth=1;" vertex="1" parent="WIyWlLk6GJQsqaUBKTNV-1">
          <mxGeometry x="410" y="224" width="96" height="140" as="geometry">
            <mxRectangle x="230" y="140" width="160" height="26" as="alternateBounds" />
          </mxGeometry>
        </mxCell>
        <mxCell id="rktfoVMr56i7lYZDGzMG-49" value="ID_expediente" style="text;align=left;verticalAlign=top;spacingLeft=4;spacingRight=4;overflow=hidden;rotatable=0;points=[[0,0.5],[1,0.5]];portConstraint=eastwest;" vertex="1" parent="rktfoVMr56i7lYZDGzMG-48">
          <mxGeometry y="26" width="96" height="26" as="geometry" />
        </mxCell>
        <mxCell id="rktfoVMr56i7lYZDGzMG-50" value="" style="line;html=1;strokeWidth=1;align=left;verticalAlign=middle;spacingTop=-1;spacingLeft=3;spacingRight=3;rotatable=0;labelPosition=right;points=[];portConstraint=eastwest;" vertex="1" parent="rktfoVMr56i7lYZDGzMG-48">
          <mxGeometry y="52" width="96" height="88" as="geometry" />
        </mxCell>
        <mxCell id="rktfoVMr56i7lYZDGzMG-56" value="" style="group" vertex="1" connectable="0" parent="WIyWlLk6GJQsqaUBKTNV-1">
          <mxGeometry x="169" y="284" width="60" height="0.5100000000000051" as="geometry" />
        </mxCell>
        <mxCell id="rktfoVMr56i7lYZDGzMG-43" value="" style="group" vertex="1" connectable="0" parent="rktfoVMr56i7lYZDGzMG-56">
          <mxGeometry width="60" height="0.51" as="geometry" />
        </mxCell>
        <mxCell id="rktfoVMr56i7lYZDGzMG-44" value="" style="endArrow=none;html=1;rounded=0;exitX=0.994;exitY=1.115;exitDx=0;exitDy=0;exitPerimeter=0;entryX=0;entryY=0.5;entryDx=0;entryDy=0;" edge="1" parent="rktfoVMr56i7lYZDGzMG-43">
          <mxGeometry width="50" height="50" relative="1" as="geometry">
            <mxPoint y="0.5000000000000089" as="sourcePoint" />
            <mxPoint x="60" y="0.51" as="targetPoint" />
          </mxGeometry>
        </mxCell>
        <mxCell id="rktfoVMr56i7lYZDGzMG-45" value="crea" style="edgeLabel;html=1;align=center;verticalAlign=middle;resizable=0;points=[];" vertex="1" connectable="0" parent="rktfoVMr56i7lYZDGzMG-44">
          <mxGeometry x="0.2196" y="3" relative="1" as="geometry">
            <mxPoint x="-7" y="-12" as="offset" />
          </mxGeometry>
        </mxCell>
        <mxCell id="rktfoVMr56i7lYZDGzMG-47" value="1..1" style="edgeLabel;resizable=0;html=1;align=left;verticalAlign=top;" connectable="0" vertex="1" parent="rktfoVMr56i7lYZDGzMG-43">
          <mxGeometry x="4.256526674233848" as="geometry" />
        </mxCell>
        <mxCell id="rktfoVMr56i7lYZDGzMG-46" value="1..n" style="edgeLabel;resizable=0;html=1;align=left;verticalAlign=top;" connectable="0" vertex="1" parent="rktfoVMr56i7lYZDGzMG-56">
          <mxGeometry x="39.0017934165721" as="geometry" />
        </mxCell>
        <mxCell id="rktfoVMr56i7lYZDGzMG-57" value="" style="group" vertex="1" connectable="0" parent="WIyWlLk6GJQsqaUBKTNV-1">
          <mxGeometry x="328" y="284.51" width="80" height="0.51" as="geometry" />
        </mxCell>
        <mxCell id="rktfoVMr56i7lYZDGzMG-58" value="" style="group" vertex="1" connectable="0" parent="rktfoVMr56i7lYZDGzMG-57">
          <mxGeometry width="80" height="0.5099999999999949" as="geometry" />
        </mxCell>
        <mxCell id="rktfoVMr56i7lYZDGzMG-59" value="" style="endArrow=none;html=1;rounded=0;exitX=0.994;exitY=1.115;exitDx=0;exitDy=0;exitPerimeter=0;entryX=0;entryY=0.5;entryDx=0;entryDy=0;" edge="1" parent="rktfoVMr56i7lYZDGzMG-58">
          <mxGeometry width="50" height="50" relative="1" as="geometry">
            <mxPoint y="0.5000000000000039" as="sourcePoint" />
            <mxPoint x="80" y="0.5099999999999949" as="targetPoint" />
          </mxGeometry>
        </mxCell>
        <mxCell id="rktfoVMr56i7lYZDGzMG-60" value="genera" style="edgeLabel;html=1;align=center;verticalAlign=middle;resizable=0;points=[];" vertex="1" connectable="0" parent="rktfoVMr56i7lYZDGzMG-59">
          <mxGeometry x="0.2196" y="3" relative="1" as="geometry">
            <mxPoint x="-7" y="-12" as="offset" />
          </mxGeometry>
        </mxCell>
        <mxCell id="rktfoVMr56i7lYZDGzMG-61" value="1..1" style="edgeLabel;resizable=0;html=1;align=left;verticalAlign=top;" connectable="0" vertex="1" parent="rktfoVMr56i7lYZDGzMG-58">
          <mxGeometry x="5.675368898978464" as="geometry" />
        </mxCell>
        <mxCell id="rktfoVMr56i7lYZDGzMG-62" value="1..1" style="edgeLabel;resizable=0;html=1;align=left;verticalAlign=top;" connectable="0" vertex="1" parent="rktfoVMr56i7lYZDGzMG-57">
          <mxGeometry x="52.00239122209613" as="geometry" />
        </mxCell>
        <mxCell id="rktfoVMr56i7lYZDGzMG-63" value="RESOLUCIÓN" style="swimlane;fontStyle=2;align=center;verticalAlign=top;childLayout=stackLayout;horizontal=1;startSize=26;horizontalStack=0;resizeParent=1;resizeLast=0;collapsible=1;marginBottom=0;rounded=0;shadow=0;strokeWidth=1;" vertex="1" parent="WIyWlLk6GJQsqaUBKTNV-1">
          <mxGeometry x="588" y="224" width="96" height="140" as="geometry">
            <mxRectangle x="230" y="140" width="160" height="26" as="alternateBounds" />
          </mxGeometry>
        </mxCell>
        <mxCell id="rktfoVMr56i7lYZDGzMG-64" value="ID_resolución" style="text;align=left;verticalAlign=top;spacingLeft=4;spacingRight=4;overflow=hidden;rotatable=0;points=[[0,0.5],[1,0.5]];portConstraint=eastwest;" vertex="1" parent="rktfoVMr56i7lYZDGzMG-63">
          <mxGeometry y="26" width="96" height="26" as="geometry" />
        </mxCell>
        <mxCell id="rktfoVMr56i7lYZDGzMG-65" value="" style="line;html=1;strokeWidth=1;align=left;verticalAlign=middle;spacingTop=-1;spacingLeft=3;spacingRight=3;rotatable=0;labelPosition=right;points=[];portConstraint=eastwest;" vertex="1" parent="rktfoVMr56i7lYZDGzMG-63">
          <mxGeometry y="52" width="96" height="88" as="geometry" />
        </mxCell>
        <mxCell id="rktfoVMr56i7lYZDGzMG-66" value="" style="group" vertex="1" connectable="0" parent="WIyWlLk6GJQsqaUBKTNV-1">
          <mxGeometry x="508" y="284" width="80" height="0.51" as="geometry" />
        </mxCell>
        <mxCell id="rktfoVMr56i7lYZDGzMG-67" value="" style="group" vertex="1" connectable="0" parent="rktfoVMr56i7lYZDGzMG-66">
          <mxGeometry width="80" height="0.5099999999999949" as="geometry" />
        </mxCell>
        <mxCell id="rktfoVMr56i7lYZDGzMG-68" value="" style="endArrow=none;html=1;rounded=0;exitX=0.994;exitY=1.115;exitDx=0;exitDy=0;exitPerimeter=0;entryX=0;entryY=0.5;entryDx=0;entryDy=0;" edge="1" parent="rktfoVMr56i7lYZDGzMG-67">
          <mxGeometry width="50" height="50" relative="1" as="geometry">
            <mxPoint y="0.5000000000000039" as="sourcePoint" />
            <mxPoint x="80" y="0.5099999999999949" as="targetPoint" />
          </mxGeometry>
        </mxCell>
        <mxCell id="rktfoVMr56i7lYZDGzMG-69" value="genera" style="edgeLabel;html=1;align=center;verticalAlign=middle;resizable=0;points=[];" vertex="1" connectable="0" parent="rktfoVMr56i7lYZDGzMG-68">
          <mxGeometry x="0.2196" y="3" relative="1" as="geometry">
            <mxPoint x="-7" y="-12" as="offset" />
          </mxGeometry>
        </mxCell>
        <mxCell id="rktfoVMr56i7lYZDGzMG-70" value="1..1" style="edgeLabel;resizable=0;html=1;align=left;verticalAlign=top;" connectable="0" vertex="1" parent="rktfoVMr56i7lYZDGzMG-67">
          <mxGeometry x="5.675368898978464" as="geometry" />
        </mxCell>
        <mxCell id="rktfoVMr56i7lYZDGzMG-71" value="1..2" style="edgeLabel;resizable=0;html=1;align=left;verticalAlign=top;" connectable="0" vertex="1" parent="rktfoVMr56i7lYZDGzMG-66">
          <mxGeometry x="52.00239122209613" as="geometry" />
        </mxCell>
        <mxCell id="rktfoVMr56i7lYZDGzMG-72" value="DIRECTIVO" style="swimlane;fontStyle=2;align=center;verticalAlign=top;childLayout=stackLayout;horizontal=1;startSize=26;horizontalStack=0;resizeParent=1;resizeLast=0;collapsible=1;marginBottom=0;rounded=0;shadow=0;strokeWidth=1;" vertex="1" parent="WIyWlLk6GJQsqaUBKTNV-1">
          <mxGeometry x="828" y="54" width="110" height="140" as="geometry">
            <mxRectangle x="230" y="140" width="160" height="26" as="alternateBounds" />
          </mxGeometry>
        </mxCell>
        <mxCell id="rktfoVMr56i7lYZDGzMG-82" value="ADMINISTRATIVO" style="swimlane;fontStyle=2;align=center;verticalAlign=top;childLayout=stackLayout;horizontal=1;startSize=26;horizontalStack=0;resizeParent=1;resizeLast=0;collapsible=1;marginBottom=0;rounded=0;shadow=0;strokeWidth=1;" vertex="1" parent="WIyWlLk6GJQsqaUBKTNV-1">
          <mxGeometry x="828" y="214" width="110" height="140" as="geometry">
            <mxRectangle x="230" y="140" width="160" height="26" as="alternateBounds" />
          </mxGeometry>
        </mxCell>
        <mxCell id="rktfoVMr56i7lYZDGzMG-83" value="" style="endArrow=none;html=1;rounded=0;exitX=0;exitY=0.75;exitDx=0;exitDy=0;entryX=1;entryY=0.75;entryDx=0;entryDy=0;" edge="1" parent="WIyWlLk6GJQsqaUBKTNV-1" source="rktfoVMr56i7lYZDGzMG-82" target="rktfoVMr56i7lYZDGzMG-82">
          <mxGeometry width="50" height="50" relative="1" as="geometry">
            <mxPoint x="874" y="364" as="sourcePoint" />
            <mxPoint x="925" y="319" as="targetPoint" />
          </mxGeometry>
        </mxCell>
        <mxCell id="rktfoVMr56i7lYZDGzMG-81" value="" style="endArrow=none;html=1;rounded=0;exitX=0;exitY=0.75;exitDx=0;exitDy=0;entryX=1;entryY=0.75;entryDx=0;entryDy=0;" edge="1" parent="WIyWlLk6GJQsqaUBKTNV-1" source="rktfoVMr56i7lYZDGzMG-72" target="rktfoVMr56i7lYZDGzMG-72">
          <mxGeometry width="50" height="50" relative="1" as="geometry">
            <mxPoint x="874" y="204" as="sourcePoint" />
            <mxPoint x="925" y="159" as="targetPoint" />
          </mxGeometry>
        </mxCell>
        <mxCell id="rktfoVMr56i7lYZDGzMG-84" value="EMPLEADO &#xa;PÚBLICO" style="swimlane;fontStyle=2;align=center;verticalAlign=top;childLayout=stackLayout;horizontal=1;startSize=40;horizontalStack=0;resizeParent=1;resizeLast=0;collapsible=1;marginBottom=0;rounded=0;shadow=0;strokeWidth=1;" vertex="1" parent="WIyWlLk6GJQsqaUBKTNV-1">
          <mxGeometry x="1008" y="134" width="110" height="140" as="geometry">
            <mxRectangle x="230" y="140" width="160" height="26" as="alternateBounds" />
          </mxGeometry>
        </mxCell>
        <mxCell id="rktfoVMr56i7lYZDGzMG-85" value="NRP" style="text;align=left;verticalAlign=top;spacingLeft=4;spacingRight=4;overflow=hidden;rotatable=0;points=[[0,0.5],[1,0.5]];portConstraint=eastwest;" vertex="1" parent="rktfoVMr56i7lYZDGzMG-84">
          <mxGeometry y="40" width="110" height="26" as="geometry" />
        </mxCell>
        <mxCell id="rktfoVMr56i7lYZDGzMG-90" value="" style="endArrow=block;html=1;rounded=0;entryX=0;entryY=0.5;entryDx=0;entryDy=0;endFill=0;" edge="1" parent="WIyWlLk6GJQsqaUBKTNV-1" target="rktfoVMr56i7lYZDGzMG-84">
          <mxGeometry width="50" height="50" relative="1" as="geometry">
            <mxPoint x="938" y="134" as="sourcePoint" />
            <mxPoint x="988" y="84" as="targetPoint" />
            <Array as="points">
              <mxPoint x="978" y="134" />
              <mxPoint x="978" y="204" />
            </Array>
          </mxGeometry>
        </mxCell>
        <mxCell id="rktfoVMr56i7lYZDGzMG-91" value="" style="endArrow=block;html=1;rounded=0;entryX=0;entryY=0.5;entryDx=0;entryDy=0;endFill=0;exitX=1;exitY=0.5;exitDx=0;exitDy=0;" edge="1" parent="WIyWlLk6GJQsqaUBKTNV-1" source="rktfoVMr56i7lYZDGzMG-82">
          <mxGeometry width="50" height="50" relative="1" as="geometry">
            <mxPoint x="938" y="264" as="sourcePoint" />
            <mxPoint x="1008" y="204" as="targetPoint" />
            <Array as="points">
              <mxPoint x="978" y="284" />
              <mxPoint x="978" y="204" />
            </Array>
          </mxGeometry>
        </mxCell>
        <mxCell id="rktfoVMr56i7lYZDGzMG-98" value="1..1" style="edgeLabel;resizable=0;html=1;align=left;verticalAlign=top;" connectable="0" vertex="1" parent="WIyWlLk6GJQsqaUBKTNV-1">
          <mxGeometry x="798.0018830874006" y="124" as="geometry" />
        </mxCell>
        <mxCell id="rktfoVMr56i7lYZDGzMG-95" value="" style="endArrow=none;html=1;rounded=0;exitX=0.994;exitY=1.115;exitDx=0;exitDy=0;exitPerimeter=0;" edge="1" parent="WIyWlLk6GJQsqaUBKTNV-1">
          <mxGeometry width="50" height="50" relative="1" as="geometry">
            <mxPoint x="685" y="284.5" as="sourcePoint" />
            <mxPoint x="828" y="134" as="targetPoint" />
          </mxGeometry>
        </mxCell>
        <mxCell id="rktfoVMr56i7lYZDGzMG-96" value="firma" style="edgeLabel;html=1;align=center;verticalAlign=middle;resizable=0;points=[];" vertex="1" connectable="0" parent="rktfoVMr56i7lYZDGzMG-95">
          <mxGeometry x="0.2196" y="3" relative="1" as="geometry">
            <mxPoint x="-7" y="-12" as="offset" />
          </mxGeometry>
        </mxCell>
        <mxCell id="rktfoVMr56i7lYZDGzMG-97" value="1..N" style="edgeLabel;resizable=0;html=1;align=left;verticalAlign=top;" connectable="0" vertex="1" parent="WIyWlLk6GJQsqaUBKTNV-1">
          <mxGeometry x="691.5976163450624" y="234" as="geometry" />
        </mxCell>
        <mxCell id="rktfoVMr56i7lYZDGzMG-101" value="" style="endArrow=none;html=1;rounded=0;" edge="1" parent="WIyWlLk6GJQsqaUBKTNV-1">
          <mxGeometry width="50" height="50" relative="1" as="geometry">
            <mxPoint x="684" y="293.38" as="sourcePoint" />
            <mxPoint x="828" y="293.61" as="targetPoint" />
          </mxGeometry>
        </mxCell>
        <mxCell id="rktfoVMr56i7lYZDGzMG-105" value="redacta" style="edgeLabel;html=1;align=center;verticalAlign=middle;resizable=0;points=[];" vertex="1" connectable="0" parent="rktfoVMr56i7lYZDGzMG-101">
          <mxGeometry x="-0.0798" y="-1" relative="1" as="geometry">
            <mxPoint x="-2" y="-9" as="offset" />
          </mxGeometry>
        </mxCell>
        <mxCell id="rktfoVMr56i7lYZDGzMG-102" value="1..N" style="edgeLabel;resizable=0;html=1;align=left;verticalAlign=top;" connectable="0" vertex="1" parent="WIyWlLk6GJQsqaUBKTNV-1">
          <mxGeometry x="691.5976163450624" y="294" as="geometry" />
        </mxCell>
        <mxCell id="rktfoVMr56i7lYZDGzMG-103" value="1..1" style="edgeLabel;resizable=0;html=1;align=left;verticalAlign=top;" connectable="0" vertex="1" parent="WIyWlLk6GJQsqaUBKTNV-1">
          <mxGeometry x="798.0018830874006" y="294" as="geometry" />
        </mxCell>
        <mxCell id="rktfoVMr56i7lYZDGzMG-106" value="RECURSO" style="swimlane;fontStyle=2;align=center;verticalAlign=top;childLayout=stackLayout;horizontal=1;startSize=26;horizontalStack=0;resizeParent=1;resizeLast=0;collapsible=1;marginBottom=0;rounded=0;shadow=0;strokeWidth=1;" vertex="1" parent="WIyWlLk6GJQsqaUBKTNV-1">
          <mxGeometry x="750" y="448" width="96" height="140" as="geometry">
            <mxRectangle x="230" y="140" width="160" height="26" as="alternateBounds" />
          </mxGeometry>
        </mxCell>
        <mxCell id="rktfoVMr56i7lYZDGzMG-107" value="ID_recurso" style="text;align=left;verticalAlign=top;spacingLeft=4;spacingRight=4;overflow=hidden;rotatable=0;points=[[0,0.5],[1,0.5]];portConstraint=eastwest;" vertex="1" parent="rktfoVMr56i7lYZDGzMG-106">
          <mxGeometry y="26" width="96" height="26" as="geometry" />
        </mxCell>
        <mxCell id="rktfoVMr56i7lYZDGzMG-108" value="" style="line;html=1;strokeWidth=1;align=left;verticalAlign=middle;spacingTop=-1;spacingLeft=3;spacingRight=3;rotatable=0;labelPosition=right;points=[];portConstraint=eastwest;" vertex="1" parent="rktfoVMr56i7lYZDGzMG-106">
          <mxGeometry y="52" width="96" height="88" as="geometry" />
        </mxCell>
        <mxCell id="rktfoVMr56i7lYZDGzMG-109" value="" style="endArrow=none;html=1;rounded=0;" edge="1" parent="WIyWlLk6GJQsqaUBKTNV-1">
          <mxGeometry width="50" height="50" relative="1" as="geometry">
            <mxPoint x="749.6" y="524" as="sourcePoint" />
            <mxPoint x="640" y="364" as="targetPoint" />
            <Array as="points">
              <mxPoint x="639.6" y="524" />
            </Array>
          </mxGeometry>
        </mxCell>
        <mxCell id="rktfoVMr56i7lYZDGzMG-110" value="puede &lt;br&gt;interpornerse" style="edgeLabel;html=1;align=center;verticalAlign=middle;resizable=0;points=[];" vertex="1" connectable="0" parent="rktfoVMr56i7lYZDGzMG-109">
          <mxGeometry x="0.1833" y="-1" relative="1" as="geometry">
            <mxPoint x="37" y="-40" as="offset" />
          </mxGeometry>
        </mxCell>
        <mxCell id="rktfoVMr56i7lYZDGzMG-111" value="0..N" style="edgeLabel;resizable=0;html=1;align=left;verticalAlign=top;" connectable="0" vertex="1" parent="WIyWlLk6GJQsqaUBKTNV-1">
          <mxGeometry x="647.9976163450624" y="374" as="geometry" />
        </mxCell>
        <mxCell id="rktfoVMr56i7lYZDGzMG-112" value="1..1" style="edgeLabel;resizable=0;html=1;align=left;verticalAlign=top;" connectable="0" vertex="1" parent="WIyWlLk6GJQsqaUBKTNV-1">
          <mxGeometry x="717.9976163450624" y="524" as="geometry" />
        </mxCell>
        <mxCell id="rktfoVMr56i7lYZDGzMG-114" value="Diagrama realizado por&amp;nbsp;&lt;div&gt;PEDRO MORENO&lt;/div&gt;&lt;div&gt;&lt;br&gt;&lt;/div&gt;&lt;div&gt;https://pmoreno-rodriguez.github.io/opos_gsi/#&lt;br&gt;&lt;/div&gt;" style="shape=note;whiteSpace=wrap;html=1;backgroundOutline=1;darkOpacity=0.05;" vertex="1" parent="WIyWlLk6GJQsqaUBKTNV-1">
          <mxGeometry x="20" y="20" width="350" height="100" as="geometry" />
        </mxCell>
      </root>
    </mxGraphModel>
  </diagram>
</mxfile>
